<svg width="34" height="34" viewBox="0 0 34 34" fill="none" xmlns="http://www.w3.org/2000/svg">
<g clip-path="url(#clip0_2_1812)">
<path fill-rule="evenodd" clip-rule="evenodd" d="M9.745 2.78424C13.5892 2.78424 16.7057 5.90065 16.7057 9.74494V2.78424H23.6664C27.5106 2.78424 30.6271 5.90065 30.6271 9.74494C30.6271 13.5892 27.5106 16.7056 23.6664 16.7056C27.5106 16.7056 30.6271 19.8221 30.6271 23.6663C30.6271 25.5752 29.8587 27.3045 28.6144 28.5621L28.5884 28.5883L28.5653 28.6113C27.3075 29.8574 25.5768 30.627 23.6664 30.627C21.769 30.627 20.0488 29.8678 18.7932 28.6366C18.7769 28.6206 18.7606 28.6045 18.7444 28.5883C18.7292 28.5731 18.714 28.5577 18.6989 28.5424C17.4661 27.2865 16.7057 25.5652 16.7057 23.6663C16.7057 27.5106 13.5892 30.627 9.745 30.627C5.90071 30.627 2.7843 27.5106 2.7843 23.6663V16.7056H9.745C5.90071 16.7056 2.7843 13.5892 2.7843 9.74494C2.7843 5.90065 5.90071 2.78424 9.745 2.78424ZM15.3136 9.74494C15.3136 12.8204 12.8204 15.3135 9.745 15.3135V4.17638C12.8204 4.17638 15.3136 6.66951 15.3136 9.74494ZM29.2349 23.6663C29.2349 20.5909 26.7418 18.0978 23.6664 18.0978C20.5909 18.0978 18.0978 20.5909 18.0978 23.6663H29.2349ZM4.17644 18.0978V23.6663C4.17644 26.7418 6.66957 29.2349 9.745 29.2349C12.8204 29.2349 15.3136 26.7418 15.3136 23.6663V18.0978H4.17644ZM18.0978 15.3135V4.17638H23.6664C26.7418 4.17638 29.2349 6.66951 29.2349 9.74494C29.2349 12.8204 26.7418 15.3135 23.6664 15.3135H18.0978Z" fill="#263238"/>
</g>
<defs>
<clipPath id="clip0_2_1812">
<rect width="27.8428" height="27.8428" fill="white" transform="translate(2.7843 2.78424)"/>
</clipPath>
</defs>
</svg>
