<svg width="34" height="34" viewBox="0 0 34 34" fill="none" xmlns="http://www.w3.org/2000/svg">
<g clip-path="url(#clip0_2_1822)">
<path d="M31.3207 9.33532C31.3207 9.35886 31.3207 9.38828 31.3146 9.40593C31.2839 9.63542 31.2839 9.8649 31.3023 10.1003C31.3146 10.1591 31.3268 10.218 31.3759 10.265C31.4556 10.3533 31.5781 10.3356 31.6272 10.2297C31.6518 10.1768 31.6518 10.1238 31.6395 10.0708C31.5781 9.84725 31.5659 9.61188 31.5598 9.38239C31.5598 9.37063 31.5598 9.35297 31.5598 9.33532C31.6272 9.32944 31.6885 9.32355 31.7437 9.32355C31.7866 9.31767 31.8234 9.31178 31.8541 9.29413C31.946 9.24706 31.946 9.14703 31.8479 9.09996C31.8111 9.0823 31.7621 9.07642 31.7192 9.07642C31.5659 9.0823 31.4127 9.0823 31.2594 9.0823C31.2042 9.0823 31.149 9.08819 31.0938 9.09407C31.0632 9.09996 31.0264 9.09996 31.0019 9.11761C30.9589 9.13526 30.9344 9.16468 30.9344 9.20587C30.9406 9.24706 30.9589 9.2706 31.0019 9.28825C31.0264 9.3059 31.057 9.31178 31.0877 9.31178C31.1613 9.31767 31.241 9.32944 31.3207 9.33532ZM33.0066 9.606C33.0066 9.61188 33.0128 9.61776 33.0128 9.61776C33.0373 9.77664 33.0618 9.92963 33.0802 10.0826C33.0864 10.1356 33.0925 10.1826 33.1293 10.2238C33.209 10.3239 33.3316 10.3121 33.3867 10.2062C33.4113 10.1532 33.4174 10.1003 33.4052 10.0414C33.3684 9.8649 33.35 9.68837 33.3132 9.51773C33.2886 9.41182 33.258 9.31178 33.2274 9.21764C33.209 9.1588 33.1661 9.1176 33.0925 9.11172C33.0189 9.09996 32.9637 9.13526 32.9331 9.18822C32.8963 9.23529 32.8656 9.28236 32.8411 9.33532C32.7982 9.42947 32.7614 9.52362 32.7124 9.61188C32.7062 9.63542 32.7001 9.65307 32.6878 9.67072C32.6817 9.65895 32.6756 9.65307 32.6756 9.65307C32.5959 9.50597 32.5223 9.35886 32.4426 9.21764C32.4303 9.20587 32.4242 9.1941 32.4181 9.18233C32.3813 9.12938 32.3384 9.09996 32.271 9.09996C32.2096 9.10584 32.1606 9.14114 32.13 9.1941C32.1177 9.21764 32.1177 9.23529 32.1115 9.25883C32.087 9.44712 32.0563 9.63542 32.0319 9.82371C32.0196 9.92963 32.0134 10.0355 32.0134 10.1415C32.0073 10.165 32.0134 10.1944 32.0257 10.218C32.038 10.265 32.0748 10.2944 32.1238 10.3003C32.1851 10.3062 32.228 10.2886 32.2464 10.2415C32.2648 10.2062 32.271 10.1768 32.2771 10.1473C32.3016 10.0414 32.32 9.9414 32.3384 9.84136C32.3506 9.78252 32.3568 9.73545 32.3752 9.67072C32.3874 9.69426 32.3997 9.71191 32.412 9.72956C32.4671 9.80018 32.5223 9.87079 32.5897 9.92963C32.6572 9.9767 32.7124 9.97082 32.7675 9.91786C32.7798 9.90609 32.7859 9.90021 32.7982 9.88844C32.8534 9.80606 32.9208 9.72368 32.976 9.6413C32.9883 9.62953 32.9944 9.61776 33.0066 9.606Z" fill="#3A3B7B"/>
<path d="M18.8805 9.45093C18.8379 9.56275 18.8297 9.64332 18.8494 9.71028C18.8711 9.80134 18.9275 9.83115 19.0041 9.80799C19.7242 9.63708 21.3033 10.1222 21.8879 10.2574C22.0258 10.2858 22.1379 10.115 22.0439 9.9618C21.9065 9.81348 20.3282 9.17846 19.7259 9.14384C19.4899 9.13103 19.0678 9.07294 18.8805 9.45093Z" fill="#3A3B7B"/>
<path d="M25.0518 7.3953C25.1285 7.43781 25.1714 7.47837 25.1926 7.52368C25.2241 7.58312 25.2075 7.62424 25.1545 7.64523C24.6785 7.8682 24.0451 8.82814 23.7894 9.15921C23.7274 9.23537 23.5845 9.19112 23.5629 9.06587C23.5673 8.92426 24.1288 7.88251 24.4422 7.59877C24.5653 7.48799 24.7688 7.27063 25.0518 7.3953Z" fill="#3A3B7B"/>
<path d="M21.261 6.92279C21.3532 6.85609 21.449 6.83272 21.4979 6.87606C22.2161 7.46556 22.597 8.39909 22.8328 9.25371C22.8417 9.27362 22.8422 9.30219 22.8351 9.332C22.8322 9.35747 22.8128 9.38439 22.782 9.40521C22.7491 9.4282 22.7208 9.4352 22.7075 9.41539C22.3927 9.00448 20.5949 7.4057 21.261 6.92279Z" fill="#3A3B7B"/>
<path d="M6.05247 17.1432C6.2246 17.0202 6.41173 16.9178 6.60975 16.8384C6.81693 16.7815 7.03776 16.7909 7.23886 16.8653C7.43992 16.9396 7.61037 17.0747 7.72431 17.2502C7.82624 17.4253 7.86611 17.6274 7.83797 17.8262C7.80984 18.0248 7.7152 18.2094 7.56826 18.352C7.45436 18.4677 7.32505 18.5684 7.18376 18.6516C6.55404 19.042 5.91871 19.4111 5.28341 19.8015C5.15342 19.8993 5.01551 19.9869 4.87102 20.0636C4.65123 20.1688 4.40005 20.197 4.16091 20.1433C3.92177 20.0896 3.70971 19.9573 3.5614 19.7695C3.45053 19.6364 3.35696 19.491 3.28275 19.3362C2.68088 18.1221 2.05673 16.9132 1.47715 15.6777C1.20965 15.1428 0.992311 14.5277 0.780543 13.934C0.688922 13.7615 0.671031 13.5615 0.730678 13.3766C0.790326 13.1916 0.922806 13.0362 1.09994 12.9436C1.27707 12.8509 1.48488 12.8282 1.67917 12.8804C1.87346 12.9325 2.03891 13.0553 2.14032 13.2226C2.45202 13.6202 2.72795 14.0425 2.9651 14.485C3.56697 15.5547 4.14098 16.6244 4.72055 17.6621C4.7543 17.7194 4.79151 17.7747 4.83201 17.8279C5.26824 17.6518 5.67853 17.4217 6.05247 17.1432Z" fill="#3A3B7B"/>
<path d="M12.2754 16.7701C10.8989 18.3158 8.59171 17.9254 7.43256 15.9357C6.60776 14.5236 6.46288 12.1916 8.25736 10.7207C8.64055 10.4127 9.09875 10.203 9.58925 10.1109C10.1906 10.0282 10.8039 10.13 11.3414 10.4019C11.8788 10.6737 12.313 11.1017 12.5819 11.6246C13.5627 13.3362 13.4234 15.5185 12.2754 16.7701ZM11.7181 13.165C11.5718 12.7444 11.2785 12.3854 10.8877 12.1488C10.6666 11.9975 10.3979 11.924 10.1269 11.9405C9.85592 11.9571 9.59915 12.0628 9.39978 12.2397C8.60288 12.919 8.43566 14.529 9.01523 15.4864C9.08912 15.6425 9.1976 15.7812 9.33318 15.8929C9.46876 16.0046 9.62813 16.0865 9.80012 16.1328C9.97211 16.1792 10.1526 16.1889 10.3289 16.1613C10.5052 16.1337 10.6731 16.0695 10.8209 15.9731C11.2529 15.6516 11.5698 15.209 11.7276 14.7068C11.8854 14.2044 11.8762 13.6675 11.7014 13.1704L11.7181 13.165Z" fill="#3A3B7B"/>
<path d="M17.8928 13.839C17.7519 13.8681 17.6063 13.8698 17.4647 13.8441C17.3231 13.8183 17.1882 13.7657 17.0681 13.6892C16.963 13.6315 16.8725 13.5522 16.8031 13.4569C16.7338 13.3616 16.6874 13.2528 16.6671 13.1382C16.6468 13.0236 16.6533 12.9062 16.686 12.7943C16.7187 12.6824 16.7769 12.5789 16.8563 12.4911C16.9946 12.3147 17.191 12.1885 17.4136 12.1328C17.9947 11.9709 18.5928 11.8722 19.1969 11.8386C19.3296 11.8238 19.4641 11.8345 19.5924 11.8703C19.7207 11.9061 19.8403 11.966 19.9441 12.0468C20.0479 12.1275 20.1339 12.2273 20.197 12.3403C20.2601 12.4534 20.299 12.5774 20.3115 12.7051C20.4856 13.3322 20.5047 13.9898 20.3672 14.6253C19.8656 16.6791 18.138 17.3852 16.1987 16.7273C15.6543 16.5514 15.177 16.2236 14.8278 15.7859C14.362 15.2588 14.0318 14.6341 13.8637 13.962C13.7275 13.3635 13.7424 12.7426 13.9072 12.1508C14.072 11.559 14.3819 11.0136 14.811 10.5602C15.2183 10.0674 15.7469 9.6796 16.3492 9.43166C16.7297 9.23033 17.1751 9.17308 17.5975 9.2712C17.6933 9.29665 17.7803 9.34625 17.8494 9.41484C17.9185 9.48343 17.9673 9.56852 17.9906 9.66129C18.0139 9.75405 18.0109 9.85112 17.982 9.94241C17.953 10.0337 17.8992 10.1159 17.826 10.1805C17.6868 10.3014 17.5356 10.4089 17.3746 10.5014C16.8791 10.8042 16.448 11.1944 16.1039 11.6514C15.8784 11.947 15.7231 12.2866 15.649 12.646C15.5748 13.0055 15.5837 13.3762 15.6749 13.732C15.8012 14.2172 16.0817 14.6527 16.4773 14.9782C17.7034 16.048 19.2972 15.0157 19.0186 13.5555C18.6118 13.6518 18.2551 13.7534 17.8928 13.839Z" fill="#3A3B7B"/>
<path d="M25.3828 16.8556C23.5716 17.9254 21.5097 16.8556 21.0583 14.6092C20.7295 13.0046 21.3536 10.7581 23.5382 9.90232C24.003 9.72415 24.5072 9.6616 25.0039 9.72046C25.6006 9.82531 26.1481 10.1073 26.569 10.5266C26.9899 10.946 27.2631 11.4815 27.35 12.0578C27.7178 13.9673 26.8819 16.0052 25.3828 16.8556ZM26.0126 13.2559C26.012 12.8116 25.8482 12.3817 25.55 12.0418C25.3906 11.8316 25.1602 11.681 24.898 11.6156C24.6357 11.5503 24.3581 11.5742 24.1122 11.6834C23.1314 12.0899 22.4403 13.5662 22.6911 14.652C22.7103 14.8224 22.768 14.9867 22.8602 15.1335C22.9524 15.2802 23.0769 15.4059 23.225 15.5017C23.3731 15.5974 23.5412 15.661 23.7175 15.6879C23.8939 15.7148 24.0742 15.7045 24.2459 15.6575C24.7644 15.4837 25.2133 15.1588 25.53 14.7283C25.8467 14.2977 26.0154 13.783 26.0126 13.2559Z" fill="#3A3B7B"/>
<path d="M29.1816 17.3049C29.1542 17.5007 29.047 17.678 28.8834 17.7979C28.7199 17.9177 28.5134 17.9704 28.3094 17.9441C28.1055 17.9179 27.9207 17.8149 27.7958 17.6579C27.6709 17.501 27.6161 17.3028 27.6435 17.107C27.6708 16.9113 27.7781 16.734 27.9416 16.6141C28.1052 16.4942 28.3117 16.4416 28.5156 16.4679C28.7196 16.4941 28.9043 16.597 29.0293 16.754C29.1541 16.911 29.209 17.1092 29.1816 17.3049ZM28.6967 10.0895C28.8027 9.93417 28.9582 9.81586 29.14 9.75224C29.3218 9.68862 29.5201 9.68311 29.7054 9.73652C29.8938 9.78176 30.0602 9.88774 30.1769 10.0367C30.2936 10.1857 30.3534 10.3686 30.3463 10.5549C30.3217 10.8536 30.2752 11.1503 30.207 11.4427C30.0231 12.4323 29.8447 13.4218 29.6497 14.4006C29.5605 14.7911 29.4435 15.1655 29.3153 15.5612C29.2707 15.685 29.1962 15.7968 29.098 15.8875C29.0369 15.9558 28.9589 16.0081 28.8711 16.0397C28.7834 16.0714 28.6887 16.0813 28.596 16.0685C28.5032 16.0557 28.4152 16.0206 28.3403 15.9666C28.2654 15.9125 28.2059 15.8411 28.1673 15.7592C28.1011 15.6121 28.0651 15.454 28.0614 15.2938C28.0614 14.6306 28.0614 13.962 28.106 13.2934C28.1818 12.3392 28.3308 11.3917 28.5518 10.4586C28.5779 10.3336 28.6269 10.214 28.6967 10.1056V10.0895Z" fill="#3A3B7B"/>
<path fill-rule="evenodd" clip-rule="evenodd" d="M3.69796 21.6031C3.63216 21.7441 3.61411 21.9012 3.64627 22.0525C3.66766 22.2519 3.71464 22.448 3.78615 22.6364C3.87542 22.867 3.97532 23.0951 4.0985 23.3763C4.12682 23.441 4.15643 23.5085 4.1874 23.5796C4.35351 23.9604 4.56194 24.4472 4.83995 25.1516C4.91864 25.3518 4.98851 25.5535 5.05888 25.7567C5.0873 25.8387 5.11583 25.9211 5.14503 26.0036C5.2497 26.2971 5.4298 26.5607 5.66853 26.7696C5.7699 26.8844 5.90436 26.9681 6.05513 27.0099C6.20885 27.0526 6.37233 27.0499 6.52441 27.0022C6.67649 26.9544 6.81006 26.8639 6.90779 26.7423C7.00359 26.623 7.06057 26.4793 7.07164 26.3292C7.1338 26.0368 7.11258 25.7336 7.01014 25.4517C6.84754 24.9836 6.66233 24.5148 6.44874 24.0563L6.44776 24.0543C6.0964 23.337 5.73924 22.6246 5.36519 21.9119L5.36239 21.9069C5.25288 21.7213 5.11058 21.5553 4.94186 21.4164C4.83233 21.2925 4.68125 21.2089 4.5144 21.1801C4.34399 21.1507 4.16825 21.1804 4.01853 21.2638C3.8769 21.3414 3.76463 21.4602 3.69796 21.6031Z" fill="#3A3B7B"/>
<path fill-rule="evenodd" clip-rule="evenodd" d="M9.06448 19.8367C8.51355 19.6997 7.93818 19.6798 7.37847 19.7782C6.94495 19.8192 6.51857 19.9152 6.2225 20.1053C6.07192 20.202 5.95017 20.3263 5.88245 20.4842C5.81435 20.643 5.80566 20.8246 5.86146 21.0269C5.96335 21.3975 6.09566 21.7578 6.2275 22.117L6.24886 22.1751L6.24937 22.1764C6.64635 23.2199 7.04711 24.2598 7.45152 25.2961C7.49868 25.4594 7.56537 25.6169 7.65024 25.7655L7.65183 25.7683C7.76395 25.9529 7.90776 26.118 8.07717 26.2567C8.16191 26.333 8.26669 26.3857 8.38031 26.4093C8.49504 26.4331 8.61436 26.4262 8.72526 26.3893C8.83622 26.3525 8.93446 26.2871 9.00933 26.2003C9.08298 26.1149 9.13121 26.012 9.14893 25.9026C9.22202 25.6052 9.19861 25.2935 9.08177 25.0092C9.04531 24.9136 9.01671 24.8158 8.98657 24.7129C8.97652 24.6786 8.96633 24.6437 8.95558 24.6081C9.88128 24.2608 10.8662 23.7938 11.2126 22.7075C11.3482 22.332 11.3595 21.9255 11.2449 21.5436C11.1303 21.1613 10.8949 20.8225 10.5714 20.5737C10.1311 20.2255 9.6168 19.9739 9.06448 19.8367ZM7.53737 21.1692C7.5556 21.1641 7.57397 21.1595 7.59238 21.1551C8.19504 21.0642 8.81163 21.1853 9.32863 21.4962C9.55647 21.6483 9.6498 21.8173 9.66583 21.9798C9.68237 22.1472 9.61895 22.3286 9.49155 22.503C9.25081 22.8324 8.81149 23.0961 8.41466 23.1452C8.12536 22.5058 7.83158 21.8405 7.53737 21.1692Z" fill="#3A3B7B"/>
<path d="M12.7374 18.6662C13.3935 18.3754 14.2062 18.3251 14.8421 18.5296C15.0023 18.5744 15.1412 18.6712 15.2352 18.8036C15.3286 18.9351 15.3717 19.0936 15.3573 19.2521C15.3564 19.355 15.3301 19.4562 15.2806 19.5475C15.2302 19.6404 15.1572 19.7203 15.0679 19.7805C14.9785 19.8407 14.8754 19.8793 14.7672 19.8931C14.6589 19.907 14.5489 19.8956 14.4462 19.86L14.4384 19.8573L14.431 19.8535C14.3785 19.8272 14.3227 19.8073 14.265 19.7944L14.2613 19.7936C13.814 19.6795 13.392 19.8685 13.2379 20.1007C13.1643 20.2114 13.1552 20.3231 13.2165 20.4248C13.282 20.5337 13.4428 20.6558 13.7683 20.7429C13.8578 20.7665 13.9495 20.7893 14.0426 20.8124C14.2999 20.8763 14.5673 20.9428 14.8259 21.0348L14.8269 21.0352C16.0199 21.4709 16.4641 22.3731 16.312 23.2218C16.1616 24.061 15.4313 24.8248 14.3332 25.0049C13.9336 25.0899 13.5177 25.0734 13.1268 24.9569C12.7348 24.84 12.3816 24.6268 12.102 24.3384L12.0947 24.3308C12.0065 24.2222 11.9472 24.0945 11.9208 23.959C11.8966 23.8368 11.9094 23.7104 11.9575 23.5948C12.0054 23.48 12.0863 23.3805 12.1908 23.3081C12.3011 23.226 12.4341 23.1767 12.5734 23.1664C12.7121 23.1562 12.851 23.1852 12.9728 23.2497C13.0945 23.3061 13.2077 23.3781 13.3093 23.4637L13.3112 23.4652C13.491 23.623 13.7084 23.6641 13.917 23.626C14.1286 23.5874 14.3275 23.4673 14.4555 23.3078C14.5826 23.1494 14.6336 22.9612 14.5731 22.7785C14.5121 22.5945 14.3289 22.3884 13.9262 22.216C13.821 22.1731 13.7119 22.1385 13.5983 22.1048C13.5677 22.0958 13.5366 22.0867 13.5051 22.0775C13.4212 22.0531 13.3348 22.0279 13.2501 22.0001C13.1918 21.9811 13.1339 21.963 13.0766 21.945C12.92 21.8961 12.7673 21.8484 12.6204 21.7844C12.3006 21.6799 12.0243 21.4792 11.8326 21.2121C11.6401 20.9439 11.5433 20.6231 11.5565 20.2978C11.5575 19.5049 12.0778 18.9586 12.7374 18.6662Z" fill="#3A3B7B"/>
<path d="M21.0552 18.5817C20.928 18.5221 20.7873 18.4938 20.6459 18.4993C20.5044 18.5049 20.3666 18.5442 20.245 18.6137C20.1241 18.6827 20.0228 18.7793 19.9503 18.895C19.8838 18.9924 19.8378 19.1013 19.8148 19.2157C19.7919 19.3299 19.7924 19.4474 19.8164 19.5614C19.8401 19.7079 19.8664 19.8504 19.8923 19.9909C19.9353 20.2235 19.977 20.4508 20.0046 20.6826L20.0056 20.6885C20.0684 21.052 20.1013 21.4196 20.1042 21.788L20.1045 21.7932C20.1259 22.191 19.9847 22.5811 19.7111 22.8807L19.7067 22.886C19.6177 22.9955 19.4987 23.0791 19.3629 23.1274C19.2272 23.1758 19.0801 23.1869 18.9382 23.1595C18.7963 23.1322 18.6651 23.0675 18.5593 22.9727C18.4535 22.8778 18.3771 22.7562 18.339 22.6222C18.2577 22.3398 18.2107 22.0492 18.1987 21.7564L18.3376 19.634C18.3396 19.6063 18.342 19.5779 18.3444 19.5492C18.3496 19.4847 18.3551 19.419 18.3573 19.3578C18.3606 19.2677 18.3578 19.175 18.3359 19.0873C18.3135 18.9977 18.2709 18.9124 18.1954 18.8398C18.1206 18.7679 18.0197 18.7148 17.8927 18.6787C17.663 18.6149 17.4687 18.6169 17.3069 18.6829C17.1449 18.7488 17.034 18.8712 16.9555 19.0126C16.8776 19.1528 16.8275 19.3188 16.7896 19.485C16.7616 19.6084 16.739 19.7379 16.7175 19.8612C16.7101 19.9036 16.7029 19.9453 16.6955 19.9859L16.6953 19.9871C16.5805 20.6631 16.5464 21.3495 16.5935 22.033C16.6023 22.4024 16.6825 22.7669 16.8302 23.1081C16.9968 23.5484 17.2986 23.9298 17.6957 24.2021C18.0937 24.4749 18.5686 24.6252 19.0575 24.6332C19.5465 24.6411 20.0264 24.5063 20.4338 24.2466C20.8404 23.9872 21.1556 23.6155 21.3376 23.1807C21.5922 22.6267 21.7117 22.0242 21.6871 21.4192C21.6721 20.9775 21.6471 20.5324 21.6222 20.0895C21.6099 19.8723 21.5977 19.6555 21.5868 19.4401C21.5813 19.2241 21.507 19.0148 21.374 18.8404C21.2917 18.7302 21.1822 18.6413 21.0552 18.5817Z" fill="#3A3B7B"/>
<path d="M25.5578 21.9098C25.5449 21.9255 25.5313 21.9418 25.5171 21.9587C25.4136 21.3858 25.3177 20.8131 25.2217 20.2395C25.1873 20.0337 25.1526 19.827 25.1178 19.6209L25.1139 19.5979L25.1012 19.578C25.0772 19.5407 25.0748 19.504 25.0748 19.4258V19.4168L25.0734 19.4078C25.0474 19.2464 24.9713 19.0962 24.8551 18.9768C24.7392 18.8577 24.5886 18.7749 24.423 18.7389C24.2577 18.6998 24.084 18.7084 23.9237 18.7637C23.7639 18.8189 23.6246 18.9181 23.5232 19.0489C23.4389 19.1492 23.3697 19.2605 23.318 19.3794C23.2004 19.6356 23.0818 19.8924 22.9629 20.1499L22.9609 20.1544C22.6641 20.7972 22.3652 21.4444 22.0751 22.0967L22.0742 22.0988C21.8961 22.5218 21.7491 22.9674 21.6026 23.4117C21.5733 23.5004 21.544 23.589 21.5145 23.6774C21.4616 23.8176 21.4385 23.9665 21.4465 24.1154C21.4368 24.2487 21.4701 24.3816 21.5417 24.4963C21.6148 24.6133 21.7243 24.7053 21.8548 24.7595C21.993 24.8176 22.1476 24.83 22.294 24.7946C22.4401 24.7592 22.5698 24.6783 22.6628 24.5645C22.7815 24.4243 22.8836 24.2715 22.9669 24.1095C23.2127 23.627 23.4476 23.1386 23.6814 22.6523C23.7719 22.4642 23.8598 22.2957 23.9598 22.1123C23.9667 22.1349 23.9737 22.1569 23.981 22.1791C24.0858 22.622 24.2627 23.0463 24.5052 23.4363C24.5511 23.519 24.6151 23.5912 24.6926 23.648C24.7712 23.7055 24.8618 23.7459 24.9582 23.7664C25.0546 23.7869 25.1545 23.787 25.251 23.7667C25.3473 23.7464 25.4382 23.706 25.5168 23.6487L25.6723 23.537L26.8791 22.5614L26.8078 22.9979C26.7098 23.5979 26.6126 24.1929 26.5093 24.7881C26.4417 25.0519 26.4418 25.3274 26.5096 25.5911C26.539 25.7396 26.6137 25.8762 26.7244 25.9836C26.836 26.0919 26.9789 26.1655 27.1347 26.1949C27.2904 26.2242 27.4517 26.208 27.5977 26.1482C27.7415 26.0893 27.8639 25.9909 27.9494 25.8654C28.1484 25.6284 28.2723 25.3416 28.3063 25.0389C28.3575 24.6115 28.4154 24.1783 28.4733 23.7452C28.54 23.246 28.6067 22.747 28.663 22.2575L28.6632 22.256C28.7174 21.7202 28.7436 21.1822 28.7418 20.6439C28.7536 20.4738 28.7095 20.3043 28.6155 20.1594C28.5211 20.0141 28.3814 19.9011 28.2162 19.8365C28.0444 19.7615 27.8521 19.7415 27.6675 19.7794C27.4842 19.817 27.3182 19.9097 27.1937 20.0441C26.9711 20.2417 26.7623 20.4532 26.5686 20.6771L26.5673 20.6786C26.3558 20.9315 26.1458 21.1894 25.9371 21.4456C25.8102 21.6014 25.6837 21.7568 25.5578 21.9098Z" fill="#3A3B7B"/>
</g>
<defs>
<clipPath id="clip0_2_1822">
<rect width="32.7153" height="20.186" fill="white" transform="translate(0.696045 6.85406)"/>
</clipPath>
</defs>
</svg>
